<svg xmlns="http://www.w3.org/2000/svg" viewBox="0 0 100 100" fill="none">
  <!-- UN Blue color -->
  <defs>
    <style>
      .un-blue { fill: #009EDB; }
      .un-blue-stroke { stroke: #009EDB; stroke-width: 2; fill: none; }
    </style>
  </defs>

  <!-- Olive Wreath - Left Branch -->
  <g class="un-blue">
    <path d="M50 85 Q25 80 20 55 Q18 45 25 38 Q28 35 32 38 Q35 40 33 45 Q30 55 35 70 Q40 78 50 80 Z"/>
    <path d="M50 85 Q25 80 22 60 Q20 50 28 42 Q30 40 33 43 Q35 45 33 50 Q30 58 35 72 Q40 78 50 80 Z" transform="rotate(-5 50 80)"/>
    <ellipse cx="30" cy="65" rx="3" ry="5" transform="rotate(-30 30 65)"/>
    <ellipse cx="35" cy="55" rx="3" ry="5" transform="rotate(-40 35 55)"/>
    <ellipse cx="40" cy="48" rx="3" ry="5" transform="rotate(-50 40 48)"/>
    <ellipse cx="45" cy="43" rx="3" ry="5" transform="rotate(-60 45 43)"/>
  </g>

  <!-- Olive Wreath - Right Branch -->
  <g class="un-blue">
    <path d="M50 85 Q75 80 80 55 Q82 45 75 38 Q72 35 68 38 Q65 40 67 45 Q70 55 65 70 Q60 78 50 80 Z"/>
    <path d="M50 85 Q75 80 78 60 Q80 50 72 42 Q70 40 67 43 Q65 45 67 50 Q70 58 65 72 Q60 78 50 80 Z" transform="rotate(5 50 80)"/>
    <ellipse cx="70" cy="65" rx="3" ry="5" transform="rotate(30 70 65)"/>
    <ellipse cx="65" cy="55" rx="3" ry="5" transform="rotate(40 65 55)"/>
    <ellipse cx="60" cy="48" rx="3" ry="5" transform="rotate(50 60 48)"/>
    <ellipse cx="55" cy="43" rx="3" ry="5" transform="rotate(60 55 43)"/>
  </g>

  <!-- Globe - Azimuthal Equidistant Projection -->
  <circle cx="50" cy="50" r="35" class="un-blue-stroke" fill="none"/>
  <path d="M50 15 Q50 50 50 85" class="un-blue-stroke"/>
  <path d="M15 50 Q50 50 85 50" class="un-blue-stroke"/>
  <path d="M22 28 Q50 45 78 28" class="un-blue-stroke"/>
  <path d="M22 72 Q50 55 78 72" class="un-blue-stroke"/>
  <ellipse cx="50" cy="50" rx="15" ry="35" class="un-blue-stroke"/>
  <ellipse cx="50" cy="50" rx="35" ry="15" class="un-blue-stroke"/>

  <!-- UN Text Arc -->
  <path id="unTextPath" d="M30 30 A 25 25 0 0 1 70 30" fill="none"/>
  <text font-family="Arial, sans-serif" font-size="10" font-weight="bold" fill="#009EDB" text-anchor="middle">
    <textPath href="#unTextPath" startOffset="50%">UN</textPath>
  </text>
</svg>